{
    "asset" : {
        "generator" : "Khronos glTF Blender I/O v3.4.50",
        "version" : "2.0"
    },
    "scene" : 0,
    "scenes" : [
        {
            "name" : "Scene",
            "nodes" : [
                4,
                6,
                7,
                8,
                9
            ]
        }
    ],
    "nodes" : [
        {
            "mesh" : 0,
            "name" : "KEYCAP",
            "translation" : [
                -15.322504043579102,
                0.5822156071662903,
                -0.9790014028549194
            ]
        },
        {
            "children" : [
                0
            ],
            "name" : "KeycapAnemo.006",
            "rotation" : [
                -0.70710688829422,
                0,
                0,
                0.7071066498756409
            ],
            "scale" : [
                1,
                1,
                1.0999996662139893
            ],
            "translation" : [
                8.254168510437012,
                4.770013332366943,
                -7.590247631072998
            ]
        },
        {
            "children" : [
                1
            ],
            "name" : "RootNode.001"
        },
        {
            "children" : [
                2
            ],
            "name" : "07283cb4e6914890916a094a0942f68b.fbx.001",
            "rotation" : [
                0.70710688829422,
                0,
                0,
                0.7071066498756409
            ],
            "scale" : [
                0.009999999776482582,
                0.009999999776482582,
                0.009999999776482582
            ]
        },
        {
            "children" : [
                3
            ],
            "name" : "Sketchfab_model",
            "rotation" : [
                -0.70710688829422,
                0,
                0,
                0.7071066498756409
            ]
        },
        {
            "name" : "RootNode.002"
        },
        {
            "children" : [
                5
            ],
            "name" : "07283cb4e6914890916a094a0942f68b.fbx.002",
            "rotation" : [
                0.7071070671081543,
                0,
                0,
                0.7071065306663513
            ],
            "scale" : [
                0.011750007048249245,
                0.011750008910894394,
                0.011750008910894394
            ],
            "translation" : [
                0.11149421334266663,
                -0.011190081015229225,
                -0.035596005618572235
            ]
        },
        {
            "name" : "Curve"
        },
        {
            "mesh" : 1,
            "name" : "Curve.001",
            "translation" : [
                0.21076686680316925,
                0.07210403680801392,
                -0.013554070144891739
            ]
        },
        {
            "mesh" : 2,
            "name" : "Curve.002",
            "scale" : [
                0.12366414815187454,
                0.12366414815187454,
                0.12366414815187454
            ],
            "translation" : [
                -0.08534198254346848,
                0.04605472460389137,
                -0.07225041836500168
            ]
        }
    ],
    "materials" : [
        {
            "doubleSided" : true,
            "name" : ".038",
            "pbrMetallicRoughness" : {
                "baseColorFactor" : [
                    0.800000011920929,
                    0.800000011920929,
                    0.800000011920929,
                    1
                ],
                "metallicFactor" : 0,
                "roughnessFactor" : 0.8211145401000977
            }
        },
        {
            "doubleSided" : true,
            "name" : "SVGMat.010",
            "pbrMetallicRoughness" : {
                "baseColorFactor" : [
                    0.006512090563774109,
                    0.4019777774810791,
                    0.08437620848417282,
                    1
                ],
                "metallicFactor" : 0,
                "roughnessFactor" : 0.4000000059604645
            }
        },
        {
            "doubleSided" : true,
            "name" : "SVGMat.011",
            "pbrMetallicRoughness" : {
                "baseColorFactor" : [
                    1,
                    1,
                    1,
                    1
                ],
                "metallicFactor" : 0,
                "roughnessFactor" : 0.4000000059604645
            }
        }
    ],
    "meshes" : [
        {
            "name" : "KeycapAnemo.006_\ufffd\ufffd\ufffd\ufffd\ufffd\ufffd\ufffd\ufffd\ufffd\ufffd\ufffd\ufffd\ufffd\ufffd.003",
            "primitives" : [
                {
                    "attributes" : {
                        "POSITION" : 0,
                        "TEXCOORD_0" : 1,
                        "TEXCOORD_1" : 2,
                        "TEXCOORD_2" : 3,
                        "NORMAL" : 4
                    },
                    "indices" : 5,
                    "material" : 0
                }
            ]
        },
        {
            "name" : "Curve.006",
            "primitives" : [
                {
                    "attributes" : {
                        "POSITION" : 6,
                        "TEXCOORD_0" : 7,
                        "NORMAL" : 8
                    },
                    "indices" : 9,
                    "material" : 1
                }
            ]
        },
        {
            "name" : "Curve.007",
            "primitives" : [
                {
                    "attributes" : {
                        "POSITION" : 10,
                        "TEXCOORD_0" : 11,
                        "NORMAL" : 12
                    },
                    "indices" : 13,
                    "material" : 2
                }
            ]
        }
    ],
    "accessors" : [
        {
            "bufferView" : 0,
            "componentType" : 5126,
            "count" : 4193,
            "max" : [
                3.745603561401367,
                3.670083999633789,
                0.6016139984130859
            ],
            "min" : [
                -3.7820425033569336,
                -3.857545852661133,
                -4.453150749206543
            ],
            "type" : "VEC3"
        },
        {
            "bufferView" : 1,
            "componentType" : 5126,
            "count" : 4193,
            "type" : "VEC2"
        },
        {
            "bufferView" : 2,
            "componentType" : 5126,
            "count" : 4193,
            "type" : "VEC2"
        },
        {
            "bufferView" : 3,
            "componentType" : 5126,
            "count" : 4193,
            "type" : "VEC2"
        },
        {
            "bufferView" : 4,
            "componentType" : 5126,
            "count" : 4193,
            "type" : "VEC3"
        },
        {
            "bufferView" : 5,
            "componentType" : 5123,
            "count" : 6501,
            "type" : "SCALAR"
        },
        {
            "bufferView" : 6,
            "componentType" : 5126,
            "count" : 356,
            "max" : [
                -0.2660139501094818,
                -0.027736380696296692,
                -0.05674236640334129
            ],
            "min" : [
                -0.2979707717895508,
                -0.03214408829808235,
                -0.08869245648384094
            ],
            "type" : "VEC3"
        },
        {
            "bufferView" : 7,
            "componentType" : 5126,
            "count" : 356,
            "type" : "VEC2"
        },
        {
            "bufferView" : 8,
            "componentType" : 5126,
            "count" : 356,
            "type" : "VEC3"
        },
        {
            "bufferView" : 9,
            "componentType" : 5123,
            "count" : 564,
            "type" : "SCALAR"
        },
        {
            "bufferView" : 10,
            "componentType" : 5126,
            "count" : 1067,
            "max" : [
                0.1441810131072998,
                0.015021571889519691,
                -0.04518882930278778
            ],
            "min" : [
                0.08344026654958725,
                -2.7977290301350877e-05,
                -0.1805436760187149
            ],
            "type" : "VEC3"
        },
        {
            "bufferView" : 11,
            "componentType" : 5126,
            "count" : 1067,
            "type" : "VEC2"
        },
        {
            "bufferView" : 12,
            "componentType" : 5126,
            "count" : 1067,
            "type" : "VEC3"
        },
        {
            "bufferView" : 13,
            "componentType" : 5123,
            "count" : 1587,
            "type" : "SCALAR"
        }
    ],
    "bufferViews" : [
        {
            "buffer" : 0,
            "byteLength" : 50316,
            "byteOffset" : 0,
            "target" : 34962
        },
        {
            "buffer" : 0,
            "byteLength" : 33544,
            "byteOffset" : 50316,
            "target" : 34962
        },
        {
            "buffer" : 0,
            "byteLength" : 33544,
            "byteOffset" : 83860,
            "target" : 34962
        },
        {
            "buffer" : 0,
            "byteLength" : 33544,
            "byteOffset" : 117404,
            "target" : 34962
        },
        {
            "buffer" : 0,
            "byteLength" : 50316,
            "byteOffset" : 150948,
            "target" : 34962
        },
        {
            "buffer" : 0,
            "byteLength" : 13002,
            "byteOffset" : 201264,
            "target" : 34963
        },
        {
            "buffer" : 0,
            "byteLength" : 4272,
            "byteOffset" : 214268,
            "target" : 34962
        },
        {
            "buffer" : 0,
            "byteLength" : 2848,
            "byteOffset" : 218540,
            "target" : 34962
        },
        {
            "buffer" : 0,
            "byteLength" : 4272,
            "byteOffset" : 221388,
            "target" : 34962
        },
        {
            "buffer" : 0,
            "byteLength" : 1128,
            "byteOffset" : 225660,
            "target" : 34963
        },
        {
            "buffer" : 0,
            "byteLength" : 12804,
            "byteOffset" : 226788,
            "target" : 34962
        },
        {
            "buffer" : 0,
            "byteLength" : 8536,
            "byteOffset" : 239592,
            "target" : 34962
        },
        {
            "buffer" : 0,
            "byteLength" : 12804,
            "byteOffset" : 248128,
            "target" : 34962
        },
        {
            "buffer" : 0,
            "byteLength" : 3174,
            "byteOffset" : 260932,
            "target" : 34963
        }
    ],
    "buffers" : [
        {
            "byteLength" : 264108,
            "uri" : "data:application/octet-stream;base64,"
        }
    ]
}
