{
    "asset" : {
        "generator" : "Khronos glTF Blender I/O v3.4.50",
        "version" : "2.0"
    },
    "scene" : 0,
    "scenes" : [
        {
            "name" : "Scene",
            "nodes" : [
                4,
                6,
                7,
                8
            ]
        }
    ],
    "nodes" : [
        {
            "mesh" : 0,
            "name" : "KEYCAP",
            "translation" : [
                -15.322504043579102,
                0.5822156071662903,
                -0.9790014028549194
            ]
        },
        {
            "children" : [
                0
            ],
            "name" : "KeycapAnemo.006",
            "rotation" : [
                -0.70710688829422,
                0,
                0,
                0.7071066498756409
            ],
            "scale" : [
                1,
                1,
                1.0999996662139893
            ],
            "translation" : [
                8.254168510437012,
                4.770013332366943,
                -7.590247631072998
            ]
        },
        {
            "children" : [
                1
            ],
            "name" : "RootNode.001"
        },
        {
            "children" : [
                2
            ],
            "name" : "07283cb4e6914890916a094a0942f68b.fbx.001",
            "rotation" : [
                0.70710688829422,
                0,
                0,
                0.7071066498756409
            ],
            "scale" : [
                0.009999999776482582,
                0.009999999776482582,
                0.009999999776482582
            ]
        },
        {
            "children" : [
                3
            ],
            "name" : "Sketchfab_model",
            "rotation" : [
                -0.70710688829422,
                0,
                0,
                0.7071066498756409
            ]
        },
        {
            "name" : "RootNode.002"
        },
        {
            "children" : [
                5
            ],
            "name" : "07283cb4e6914890916a094a0942f68b.fbx.002",
            "rotation" : [
                0.7071070671081543,
                0,
                0,
                0.7071065306663513
            ],
            "scale" : [
                0.011750007048249245,
                0.011750008910894394,
                0.011750008910894394
            ],
            "translation" : [
                0.11149421334266663,
                -0.011190081015229225,
                -0.035596005618572235
            ]
        },
        {
            "name" : "Curve"
        },
        {
            "mesh" : 1,
            "name" : "Curve.001",
            "scale" : [
                0.15998095273971558,
                0.15998095273971558,
                0.15998095273971558
            ],
            "translation" : [
                -0.11115612834692001,
                0.04128550365567207,
                -0.0511169359087944
            ]
        }
    ],
    "materials" : [
        {
            "doubleSided" : true,
            "name" : ".038",
            "pbrMetallicRoughness" : {
                "baseColorFactor" : [
                    0.800000011920929,
                    0.800000011920929,
                    0.800000011920929,
                    1
                ],
                "metallicFactor" : 0,
                "roughnessFactor" : 0.8211145401000977
            }
        },
        {
            "doubleSided" : true,
            "name" : "SVGMat.008",
            "pbrMetallicRoughness" : {
                "baseColorFactor" : [
                    0,
                    0,
                    0,
                    1
                ],
                "metallicFactor" : 0,
                "roughnessFactor" : 0.4000000059604645
            }
        }
    ],
    "meshes" : [
        {
            "name" : "KeycapAnemo.006_\ufffd\ufffd\ufffd\ufffd\ufffd\ufffd\ufffd\ufffd\ufffd\ufffd\ufffd\ufffd\ufffd\ufffd.003",
            "primitives" : [
                {
                    "attributes" : {
                        "POSITION" : 0,
                        "TEXCOORD_0" : 1,
                        "TEXCOORD_1" : 2,
                        "TEXCOORD_2" : 3,
                        "NORMAL" : 4
                    },
                    "indices" : 5,
                    "material" : 0
                }
            ]
        },
        {
            "name" : "Curve.005",
            "primitives" : [
                {
                    "attributes" : {
                        "POSITION" : 6,
                        "TEXCOORD_0" : 7,
                        "NORMAL" : 8
                    },
                    "indices" : 9,
                    "material" : 1
                }
            ]
        }
    ],
    "accessors" : [
        {
            "bufferView" : 0,
            "componentType" : 5126,
            "count" : 4193,
            "max" : [
                3.745603561401367,
                3.670083999633789,
                0.6016139984130859
            ],
            "min" : [
                -3.7820425033569336,
                -3.857545852661133,
                -4.453150749206543
            ],
            "type" : "VEC3"
        },
        {
            "bufferView" : 1,
            "componentType" : 5126,
            "count" : 4193,
            "type" : "VEC2"
        },
        {
            "bufferView" : 2,
            "componentType" : 5126,
            "count" : 4193,
            "type" : "VEC2"
        },
        {
            "bufferView" : 3,
            "componentType" : 5126,
            "count" : 4193,
            "type" : "VEC2"
        },
        {
            "bufferView" : 4,
            "componentType" : 5126,
            "count" : 4193,
            "type" : "VEC3"
        },
        {
            "bufferView" : 5,
            "componentType" : 5123,
            "count" : 6501,
            "type" : "SCALAR"
        },
        {
            "bufferView" : 6,
            "componentType" : 5126,
            "count" : 2982,
            "max" : [
                0.36413079500198364,
                0.06700252741575241,
                -0.09954330325126648
            ],
            "min" : [
                0.13562166690826416,
                -0.001680709421634674,
                -0.33124077320098877
            ],
            "type" : "VEC3"
        },
        {
            "bufferView" : 7,
            "componentType" : 5126,
            "count" : 2982,
            "type" : "VEC2"
        },
        {
            "bufferView" : 8,
            "componentType" : 5126,
            "count" : 2982,
            "type" : "VEC3"
        },
        {
            "bufferView" : 9,
            "componentType" : 5123,
            "count" : 11736,
            "type" : "SCALAR"
        }
    ],
    "bufferViews" : [
        {
            "buffer" : 0,
            "byteLength" : 50316,
            "byteOffset" : 0,
            "target" : 34962
        },
        {
            "buffer" : 0,
            "byteLength" : 33544,
            "byteOffset" : 50316,
            "target" : 34962
        },
        {
            "buffer" : 0,
            "byteLength" : 33544,
            "byteOffset" : 83860,
            "target" : 34962
        },
        {
            "buffer" : 0,
            "byteLength" : 33544,
            "byteOffset" : 117404,
            "target" : 34962
        },
        {
            "buffer" : 0,
            "byteLength" : 50316,
            "byteOffset" : 150948,
            "target" : 34962
        },
        {
            "buffer" : 0,
            "byteLength" : 13002,
            "byteOffset" : 201264,
            "target" : 34963
        },
        {
            "buffer" : 0,
            "byteLength" : 35784,
            "byteOffset" : 214268,
            "target" : 34962
        },
        {
            "buffer" : 0,
            "byteLength" : 23856,
            "byteOffset" : 250052,
            "target" : 34962
        },
        {
            "buffer" : 0,
            "byteLength" : 35784,
            "byteOffset" : 273908,
            "target" : 34962
        },
        {
            "buffer" : 0,
            "byteLength" : 23472,
            "byteOffset" : 309692,
            "target" : 34963
        }
    ],
    "buffers" : [
        {
            "byteLength" : 333164,
            "uri" : "data:application/octet-stream;base64,"
        }
    ]
}
