{
    "asset" : {
        "generator" : "Khronos glTF Blender I/O v3.4.50",
        "version" : "2.0"
    },
    "scene" : 0,
    "scenes" : [
        {
            "name" : "Scene",
            "nodes" : [
                4,
                6,
                7,
                8
            ]
        }
    ],
    "nodes" : [
        {
            "mesh" : 0,
            "name" : "KEYCAP",
            "translation" : [
                0.10002517700195312,
                0.12084974348545074,
                -0.4423063099384308
            ]
        },
        {
            "children" : [
                0
            ],
            "name" : "KeycapAnemo.006",
            "rotation" : [
                -0.70710688829422,
                0,
                0,
                0.7071066498756409
            ],
            "scale" : [
                1,
                1,
                1.0999996662139893
            ],
            "translation" : [
                8.254168510437012,
                4.770013332366943,
                -7.590247631072998
            ]
        },
        {
            "children" : [
                1
            ],
            "name" : "RootNode.001"
        },
        {
            "children" : [
                2
            ],
            "name" : "07283cb4e6914890916a094a0942f68b.fbx.001",
            "rotation" : [
                0.70710688829422,
                0,
                0,
                0.7071066498756409
            ],
            "scale" : [
                0.009999999776482582,
                0.009999999776482582,
                0.009999999776482582
            ]
        },
        {
            "children" : [
                3
            ],
            "name" : "Sketchfab_model",
            "rotation" : [
                -0.70710688829422,
                0,
                0,
                0.7071066498756409
            ]
        },
        {
            "name" : "RootNode.002"
        },
        {
            "children" : [
                5
            ],
            "name" : "07283cb4e6914890916a094a0942f68b.fbx.002",
            "rotation" : [
                0.7071070671081543,
                0,
                0,
                0.7071065306663513
            ],
            "scale" : [
                0.011750007048249245,
                0.011750008910894394,
                0.011750008910894394
            ],
            "translation" : [
                0.11149421334266663,
                -0.011190081015229225,
                -0.035596005618572235
            ]
        },
        {
            "mesh" : 1,
            "name" : "Curve",
            "scale" : [
                0.7959131002426147,
                0.7959131002426147,
                0.7959131002426147
            ],
            "translation" : [
                0.061107978224754333,
                0.047343093901872635,
                -0.059232261031866074
            ]
        },
        {
            "mesh" : 2,
            "name" : "Curve.002",
            "scale" : [
                0.7959131002426147,
                0.7959131002426147,
                0.7959131002426147
            ],
            "translation" : [
                0.061107978224754333,
                0.04800054430961609,
                -0.059232261031866074
            ]
        }
    ],
    "materials" : [
        {
            "doubleSided" : true,
            "name" : ".038",
            "pbrMetallicRoughness" : {
                "baseColorFactor" : [
                    0.800000011920929,
                    0.800000011920929,
                    0.800000011920929,
                    1
                ],
                "metallicFactor" : 0,
                "roughnessFactor" : 0.8211145401000977
            }
        },
        {
            "doubleSided" : true,
            "name" : "SVGMat.001",
            "pbrMetallicRoughness" : {
                "baseColorFactor" : [
                    0.040915198624134064,
                    0.533276379108429,
                    0.6795424818992615,
                    1
                ],
                "metallicFactor" : 0,
                "roughnessFactor" : 0.4000000059604645
            }
        },
        {
            "doubleSided" : true,
            "name" : "SVGMat.003",
            "pbrMetallicRoughness" : {
                "baseColorFactor" : [
                    0.040915198624134064,
                    0.533276379108429,
                    0.6795424818992615,
                    1
                ],
                "metallicFactor" : 0,
                "roughnessFactor" : 0.4000000059604645
            }
        }
    ],
    "meshes" : [
        {
            "name" : "KeycapAnemo.006_\ufffd\ufffd\ufffd\ufffd\ufffd\ufffd\ufffd\ufffd\ufffd\ufffd\ufffd\ufffd\ufffd\ufffd.003",
            "primitives" : [
                {
                    "attributes" : {
                        "POSITION" : 0,
                        "TEXCOORD_0" : 1,
                        "TEXCOORD_1" : 2,
                        "TEXCOORD_2" : 3,
                        "NORMAL" : 4
                    },
                    "indices" : 5,
                    "material" : 0
                }
            ]
        },
        {
            "name" : "Curve",
            "primitives" : [
                {
                    "attributes" : {
                        "POSITION" : 6,
                        "TEXCOORD_0" : 7,
                        "NORMAL" : 8
                    },
                    "indices" : 9,
                    "material" : 1
                }
            ]
        },
        {
            "name" : "Curve.002",
            "primitives" : [
                {
                    "attributes" : {
                        "POSITION" : 10,
                        "TEXCOORD_0" : 11,
                        "NORMAL" : 12
                    },
                    "indices" : 13,
                    "material" : 2
                }
            ]
        }
    ],
    "accessors" : [
        {
            "bufferView" : 0,
            "componentType" : 5126,
            "count" : 4193,
            "max" : [
                3.745603561401367,
                3.670083999633789,
                0.6016139984130859
            ],
            "min" : [
                -3.7820425033569336,
                -3.857545852661133,
                -4.453150749206543
            ],
            "type" : "VEC3"
        },
        {
            "bufferView" : 1,
            "componentType" : 5126,
            "count" : 4193,
            "type" : "VEC2"
        },
        {
            "bufferView" : 2,
            "componentType" : 5126,
            "count" : 4193,
            "type" : "VEC2"
        },
        {
            "bufferView" : 3,
            "componentType" : 5126,
            "count" : 4193,
            "type" : "VEC2"
        },
        {
            "bufferView" : 4,
            "componentType" : 5126,
            "count" : 4193,
            "type" : "VEC3"
        },
        {
            "bufferView" : 5,
            "componentType" : 5123,
            "count" : 6501,
            "type" : "SCALAR"
        },
        {
            "bufferView" : 6,
            "componentType" : 5126,
            "count" : 192,
            "max" : [
                0.032173991203308105,
                0.006944624241441488,
                -0.024266481399536133
            ],
            "min" : [
                0.024271607398986816,
                0,
                -0.03216719627380371
            ],
            "type" : "VEC3"
        },
        {
            "bufferView" : 7,
            "componentType" : 5126,
            "count" : 192,
            "type" : "VEC2"
        },
        {
            "bufferView" : 8,
            "componentType" : 5126,
            "count" : 192,
            "type" : "VEC3"
        },
        {
            "bufferView" : 9,
            "componentType" : 5123,
            "count" : 564,
            "type" : "SCALAR"
        },
        {
            "bufferView" : 10,
            "componentType" : 5126,
            "count" : 4124,
            "max" : [
                0.049954354763031006,
                0.006944624241441488,
                -0.008745528757572174
            ],
            "min" : [
                0.006491243839263916,
                0,
                -0.047686442732810974
            ],
            "type" : "VEC3"
        },
        {
            "bufferView" : 11,
            "componentType" : 5126,
            "count" : 4124,
            "type" : "VEC2"
        },
        {
            "bufferView" : 12,
            "componentType" : 5126,
            "count" : 4124,
            "type" : "VEC3"
        },
        {
            "bufferView" : 13,
            "componentType" : 5123,
            "count" : 12114,
            "type" : "SCALAR"
        }
    ],
    "bufferViews" : [
        {
            "buffer" : 0,
            "byteLength" : 50316,
            "byteOffset" : 0,
            "target" : 34962
        },
        {
            "buffer" : 0,
            "byteLength" : 33544,
            "byteOffset" : 50316,
            "target" : 34962
        },
        {
            "buffer" : 0,
            "byteLength" : 33544,
            "byteOffset" : 83860,
            "target" : 34962
        },
        {
            "buffer" : 0,
            "byteLength" : 33544,
            "byteOffset" : 117404,
            "target" : 34962
        },
        {
            "buffer" : 0,
            "byteLength" : 50316,
            "byteOffset" : 150948,
            "target" : 34962
        },
        {
            "buffer" : 0,
            "byteLength" : 13002,
            "byteOffset" : 201264,
            "target" : 34963
        },
        {
            "buffer" : 0,
            "byteLength" : 2304,
            "byteOffset" : 214268,
            "target" : 34962
        },
        {
            "buffer" : 0,
            "byteLength" : 1536,
            "byteOffset" : 216572,
            "target" : 34962
        },
        {
            "buffer" : 0,
            "byteLength" : 2304,
            "byteOffset" : 218108,
            "target" : 34962
        },
        {
            "buffer" : 0,
            "byteLength" : 1128,
            "byteOffset" : 220412,
            "target" : 34963
        },
        {
            "buffer" : 0,
            "byteLength" : 49488,
            "byteOffset" : 221540,
            "target" : 34962
        },
        {
            "buffer" : 0,
            "byteLength" : 32992,
            "byteOffset" : 271028,
            "target" : 34962
        },
        {
            "buffer" : 0,
            "byteLength" : 49488,
            "byteOffset" : 304020,
            "target" : 34962
        },
        {
            "buffer" : 0,
            "byteLength" : 24228,
            "byteOffset" : 353508,
            "target" : 34963
        }
    ],
    "buffers" : [
        {
            "byteLength" : 377736,
            "uri" : "data:application/octet-stream;base64,"
        }
    ]
}
