{
    "asset" : {
        "generator" : "Khronos glTF Blender I/O v3.4.50",
        "version" : "2.0"
    },
    "scene" : 0,
    "scenes" : [
        {
            "name" : "Scene",
            "nodes" : [
                1,
                4,
                6,
                9,
                10,
                11,
                12,
                13,
                14,
                15,
                17,
                22
            ]
        }
    ],
    "nodes" : [
        {
            "name" : "RootNode"
        },
        {
            "children" : [
                0
            ],
            "name" : "07283cb4e6914890916a094a0942f68b.fbx",
            "rotation" : [
                0.7071070671081543,
                0,
                0,
                0.7071065306663513
            ],
            "scale" : [
                0.011750007048249245,
                0.011750008910894394,
                0.011750008910894394
            ],
            "translation" : [
                0.026002410799264908,
                -0.005323266144841909,
                -0.03895813226699829
            ]
        },
        {
            "name" : "RootNode.001"
        },
        {
            "children" : [
                2
            ],
            "name" : "07283cb4e6914890916a094a0942f68b.fbx.001",
            "rotation" : [
                0.70710688829422,
                0,
                0,
                0.7071066498756409
            ],
            "scale" : [
                0.009999999776482582,
                0.009999998845160007,
                0.009999998845160007
            ]
        },
        {
            "children" : [
                3
            ],
            "name" : "Sketchfab_model",
            "rotation" : [
                -0.70710688829422,
                0,
                0,
                0.7071066498756409
            ],
            "translation" : [
                0.02218645066022873,
                -0.004064084962010384,
                -0.01574891433119774
            ]
        },
        {
            "name" : "RootNode.002"
        },
        {
            "children" : [
                5
            ],
            "name" : "07283cb4e6914890916a094a0942f68b.fbx.002",
            "rotation" : [
                0.7071070671081543,
                0,
                0,
                0.7071065306663513
            ],
            "scale" : [
                0.011750007048249245,
                0.011750008910894394,
                0.011750008910894394
            ],
            "translation" : [
                0,
                -0.0009756390354596078,
                -0.02179170399904251
            ]
        },
        {
            "name" : "RootNode.003"
        },
        {
            "children" : [
                7
            ],
            "name" : "07283cb4e6914890916a094a0942f68b.fbx.003",
            "rotation" : [
                0.70710688829422,
                0,
                0,
                0.7071066498756409
            ],
            "scale" : [
                0.009999999776482582,
                0.009999998845160007,
                0.009999998845160007
            ]
        },
        {
            "children" : [
                8
            ],
            "name" : "Sketchfab_model.001",
            "rotation" : [
                -0.70710688829422,
                0,
                0,
                0.7071066498756409
            ]
        },
        {
            "mesh" : 0,
            "name" : "Curve.009",
            "rotation" : [
                -0.003427326213568449,
                0.04294157400727272,
                0.018958305940032005,
                0.9988918304443359
            ],
            "scale" : [
                0.07709844410419464,
                0.07709845155477524,
                0.07709844410419464
            ],
            "translation" : [
                0.05491696298122406,
                0.05337419733405113,
                -0.10176751762628555
            ]
        },
        {
            "mesh" : 1,
            "name" : "Curve.625",
            "scale" : [
                0.09501713514328003,
                0.09501713514328003,
                0.09501713514328003
            ],
            "translation" : [
                0.026002410799264908,
                -0.004347627051174641,
                -0.01716643013060093
            ]
        },
        {
            "mesh" : 2,
            "name" : "Curve.665",
            "scale" : [
                0.09501713514328003,
                0.09501713514328003,
                0.09501713514328003
            ],
            "translation" : [
                0.026002410799264908,
                -0.004347627051174641,
                -0.01716643013060093
            ]
        },
        {
            "mesh" : 3,
            "name" : "Curve.826",
            "scale" : [
                0.09501713514328003,
                0.09501713514328003,
                0.09501713514328003
            ],
            "translation" : [
                0.026002410799264908,
                -0.004347627051174641,
                -0.01716643013060093
            ]
        },
        {
            "mesh" : 4,
            "name" : "Curve.2335",
            "rotation" : [
                -0.003427326213568449,
                0.04294157400727272,
                0.018958305940032005,
                0.9988918304443359
            ],
            "scale" : [
                0.07709844410419464,
                0.07709845155477524,
                0.07709844410419464
            ],
            "translation" : [
                0.05784623697400093,
                0.054293595254421234,
                -0.10113188624382019
            ]
        },
        {
            "mesh" : 5,
            "name" : "Curve.3920",
            "scale" : [
                0.09501713514328003,
                0.09501713514328003,
                0.09501713514328003
            ],
            "translation" : [
                0.02218645066022873,
                -0.004064084962010384,
                -0.01574891433119774
            ]
        },
        {
            "name" : "RootNode.004"
        },
        {
            "children" : [
                16
            ],
            "name" : "07283cb4e6914890916a094a0942f68b.fbx.004",
            "rotation" : [
                0.7071070075035095,
                0,
                0,
                0.7071065902709961
            ],
            "scale" : [
                0.011750007048249245,
                0.011750008910894394,
                0.011750008910894394
            ],
            "translation" : [
                0,
                -0.0009756390354596078,
                -0.02179170399904251
            ]
        },
        {
            "mesh" : 6,
            "name" : "KEYCAP"
        },
        {
            "children" : [
                18
            ],
            "name" : "KeycapAnemo.006",
            "rotation" : [
                -0.70710688829422,
                0,
                0,
                0.7071066498756409
            ],
            "scale" : [
                1,
                1,
                1.0999996662139893
            ],
            "translation" : [
                8.254168510437012,
                4.770013332366943,
                -7.590247631072998
            ]
        },
        {
            "children" : [
                19
            ],
            "name" : "RootNode.005"
        },
        {
            "children" : [
                20
            ],
            "name" : "07283cb4e6914890916a094a0942f68b.fbx.005",
            "rotation" : [
                0.70710688829422,
                0,
                0,
                0.7071066498756409
            ],
            "scale" : [
                0.009999999776482582,
                0.009999999776482582,
                0.009999999776482582
            ]
        },
        {
            "children" : [
                21
            ],
            "name" : "Sketchfab_model.002",
            "rotation" : [
                -0.70710688829422,
                0,
                0,
                0.7071066498756409
            ]
        }
    ],
    "materials" : [
        {
            "doubleSided" : true,
            "name" : "SVGMat.9488",
            "pbrMetallicRoughness" : {
                "baseColorFactor" : [
                    0.002124688820913434,
                    0.4677838087081909,
                    0.6653872728347778,
                    1
                ],
                "metallicFactor" : 0,
                "roughnessFactor" : 0.4000000059604645
            }
        },
        {
            "doubleSided" : true,
            "name" : "SVGMat.10104",
            "pbrMetallicRoughness" : {
                "baseColorFactor" : [
                    0.0012141079641878605,
                    0.10702310502529144,
                    0.14702726900577545,
                    1
                ],
                "metallicFactor" : 0,
                "roughnessFactor" : 0.4000000059604645
            }
        },
        {
            "doubleSided" : true,
            "name" : "SVGMat.10144",
            "pbrMetallicRoughness" : {
                "baseColorFactor" : [
                    0,
                    0.0012141079641878605,
                    0.0015176349552348256,
                    1
                ],
                "metallicFactor" : 0,
                "roughnessFactor" : 0.4000000059604645
            }
        },
        {
            "doubleSided" : true,
            "name" : "SVGMat.10305",
            "pbrMetallicRoughness" : {
                "baseColorFactor" : [
                    0,
                    0,
                    0,
                    1
                ],
                "metallicFactor" : 0,
                "roughnessFactor" : 0.4000000059604645
            }
        },
        {
            "doubleSided" : true,
            "name" : "SVGMat.11814",
            "pbrMetallicRoughness" : {
                "baseColorFactor" : [
                    0.002124688820913434,
                    0.4677838087081909,
                    0.6653872728347778,
                    1
                ],
                "metallicFactor" : 0,
                "roughnessFactor" : 0.4000000059604645
            }
        },
        {
            "doubleSided" : true,
            "name" : "SVGMat.13399",
            "pbrMetallicRoughness" : {
                "baseColorFactor" : [
                    0,
                    0.0030352699104696512,
                    0.0036765073891729116,
                    1
                ],
                "metallicFactor" : 0,
                "roughnessFactor" : 0.4000000059604645
            }
        },
        {
            "doubleSided" : true,
            "name" : ".038",
            "pbrMetallicRoughness" : {
                "baseColorFactor" : [
                    0.800000011920929,
                    0.800000011920929,
                    0.800000011920929,
                    1
                ],
                "metallicFactor" : 0,
                "roughnessFactor" : 0.8211145401000977
            }
        }
    ],
    "meshes" : [
        {
            "name" : "Curve.9485",
            "primitives" : [
                {
                    "attributes" : {
                        "POSITION" : 0,
                        "TEXCOORD_0" : 1,
                        "NORMAL" : 2
                    },
                    "indices" : 3,
                    "material" : 0
                }
            ]
        },
        {
            "name" : "Curve.10101",
            "primitives" : [
                {
                    "attributes" : {
                        "POSITION" : 4,
                        "TEXCOORD_0" : 5,
                        "NORMAL" : 6
                    },
                    "indices" : 7,
                    "material" : 1
                }
            ]
        },
        {
            "name" : "Curve.10141",
            "primitives" : [
                {
                    "attributes" : {
                        "POSITION" : 8,
                        "TEXCOORD_0" : 9,
                        "NORMAL" : 10
                    },
                    "indices" : 11,
                    "material" : 2
                }
            ]
        },
        {
            "name" : "Curve.10302",
            "primitives" : [
                {
                    "attributes" : {
                        "POSITION" : 12,
                        "TEXCOORD_0" : 13,
                        "NORMAL" : 14
                    },
                    "indices" : 15,
                    "material" : 3
                }
            ]
        },
        {
            "name" : "Curve.11811",
            "primitives" : [
                {
                    "attributes" : {
                        "POSITION" : 16,
                        "TEXCOORD_0" : 17,
                        "NORMAL" : 18
                    },
                    "indices" : 19,
                    "material" : 4
                }
            ]
        },
        {
            "name" : "Curve.13396",
            "primitives" : [
                {
                    "attributes" : {
                        "POSITION" : 20,
                        "TEXCOORD_0" : 21,
                        "NORMAL" : 22
                    },
                    "indices" : 23,
                    "material" : 5
                }
            ]
        },
        {
            "name" : "KeycapAnemo.006_\ufffd\ufffd\ufffd\ufffd\ufffd\ufffd\ufffd\ufffd\ufffd\ufffd\ufffd\ufffd\ufffd\ufffd.003",
            "primitives" : [
                {
                    "attributes" : {
                        "POSITION" : 24,
                        "TEXCOORD_0" : 25,
                        "TEXCOORD_1" : 26,
                        "TEXCOORD_2" : 27,
                        "NORMAL" : 28
                    },
                    "indices" : 29,
                    "material" : 6
                }
            ]
        }
    ],
    "accessors" : [
        {
            "bufferView" : 0,
            "componentType" : 5126,
            "count" : 2102,
            "max" : [
                0.5798945426940918,
                0.05600157380104065,
                0.3094927966594696
            ],
            "min" : [
                0.15578985214233398,
                0,
                0.13099682331085205
            ],
            "type" : "VEC3"
        },
        {
            "bufferView" : 1,
            "componentType" : 5126,
            "count" : 2102,
            "type" : "VEC2"
        },
        {
            "bufferView" : 2,
            "componentType" : 5126,
            "count" : 2102,
            "type" : "VEC3"
        },
        {
            "bufferView" : 3,
            "componentType" : 5123,
            "count" : 3300,
            "type" : "SCALAR"
        },
        {
            "bufferView" : 4,
            "componentType" : 5126,
            "count" : 185,
            "max" : [
                0.5739995837211609,
                0.04321974515914917,
                0.20132680237293243
            ],
            "min" : [
                0.5532503724098206,
                0,
                0.18667082488536835
            ],
            "type" : "VEC3"
        },
        {
            "bufferView" : 5,
            "componentType" : 5126,
            "count" : 185,
            "type" : "VEC2"
        },
        {
            "bufferView" : 6,
            "componentType" : 5126,
            "count" : 185,
            "type" : "VEC3"
        },
        {
            "bufferView" : 7,
            "componentType" : 5123,
            "count" : 276,
            "type" : "SCALAR"
        },
        {
            "bufferView" : 8,
            "componentType" : 5126,
            "count" : 168,
            "max" : [
                0.5734351277351379,
                0.04321974515914917,
                0.20414848625659943
            ],
            "min" : [
                0.5526859164237976,
                0,
                0.18949244916439056
            ],
            "type" : "VEC3"
        },
        {
            "bufferView" : 9,
            "componentType" : 5126,
            "count" : 168,
            "type" : "VEC2"
        },
        {
            "bufferView" : 10,
            "componentType" : 5126,
            "count" : 168,
            "type" : "VEC3"
        },
        {
            "bufferView" : 11,
            "componentType" : 5123,
            "count" : 276,
            "type" : "SCALAR"
        },
        {
            "bufferView" : 12,
            "componentType" : 5126,
            "count" : 185,
            "max" : [
                0.5711773037910461,
                0.04321974515914917,
                0.2117670327425003
            ],
            "min" : [
                0.5504280924797058,
                0,
                0.19711105525493622
            ],
            "type" : "VEC3"
        },
        {
            "bufferView" : 13,
            "componentType" : 5126,
            "count" : 185,
            "type" : "VEC2"
        },
        {
            "bufferView" : 14,
            "componentType" : 5126,
            "count" : 185,
            "type" : "VEC3"
        },
        {
            "bufferView" : 15,
            "componentType" : 5123,
            "count" : 276,
            "type" : "SCALAR"
        },
        {
            "bufferView" : 16,
            "componentType" : 5126,
            "count" : 2134,
            "max" : [
                0.4478118121623993,
                0.05600157380104065,
                0.4681653082370758
            ],
            "min" : [
                0.023707151412963867,
                0,
                0.28959140181541443
            ],
            "type" : "VEC3"
        },
        {
            "bufferView" : 17,
            "componentType" : 5126,
            "count" : 2134,
            "type" : "VEC2"
        },
        {
            "bufferView" : 18,
            "componentType" : 5126,
            "count" : 2134,
            "type" : "VEC3"
        },
        {
            "bufferView" : 19,
            "componentType" : 5123,
            "count" : 3300,
            "type" : "SCALAR"
        },
        {
            "bufferView" : 20,
            "componentType" : 5126,
            "count" : 177,
            "max" : [
                0.35068294405937195,
                0.04321974515914917,
                0.3960969150066376
            ],
            "min" : [
                0.3298001289367676,
                0,
                0.38157519698143005
            ],
            "type" : "VEC3"
        },
        {
            "bufferView" : 21,
            "componentType" : 5126,
            "count" : 177,
            "type" : "VEC2"
        },
        {
            "bufferView" : 22,
            "componentType" : 5126,
            "count" : 177,
            "type" : "VEC3"
        },
        {
            "bufferView" : 23,
            "componentType" : 5123,
            "count" : 276,
            "type" : "SCALAR"
        },
        {
            "bufferView" : 24,
            "componentType" : 5126,
            "count" : 4193,
            "max" : [
                3.745603561401367,
                3.670083999633789,
                0.6016139984130859
            ],
            "min" : [
                -3.7820425033569336,
                -3.857545852661133,
                -4.453150749206543
            ],
            "type" : "VEC3"
        },
        {
            "bufferView" : 25,
            "componentType" : 5126,
            "count" : 4193,
            "type" : "VEC2"
        },
        {
            "bufferView" : 26,
            "componentType" : 5126,
            "count" : 4193,
            "type" : "VEC2"
        },
        {
            "bufferView" : 27,
            "componentType" : 5126,
            "count" : 4193,
            "type" : "VEC2"
        },
        {
            "bufferView" : 28,
            "componentType" : 5126,
            "count" : 4193,
            "type" : "VEC3"
        },
        {
            "bufferView" : 29,
            "componentType" : 5123,
            "count" : 6501,
            "type" : "SCALAR"
        }
    ],
    "bufferViews" : [
        {
            "buffer" : 0,
            "byteLength" : 25224,
            "byteOffset" : 0,
            "target" : 34962
        },
        {
            "buffer" : 0,
            "byteLength" : 16816,
            "byteOffset" : 25224,
            "target" : 34962
        },
        {
            "buffer" : 0,
            "byteLength" : 25224,
            "byteOffset" : 42040,
            "target" : 34962
        },
        {
            "buffer" : 0,
            "byteLength" : 6600,
            "byteOffset" : 67264,
            "target" : 34963
        },
        {
            "buffer" : 0,
            "byteLength" : 2220,
            "byteOffset" : 73864,
            "target" : 34962
        },
        {
            "buffer" : 0,
            "byteLength" : 1480,
            "byteOffset" : 76084,
            "target" : 34962
        },
        {
            "buffer" : 0,
            "byteLength" : 2220,
            "byteOffset" : 77564,
            "target" : 34962
        },
        {
            "buffer" : 0,
            "byteLength" : 552,
            "byteOffset" : 79784,
            "target" : 34963
        },
        {
            "buffer" : 0,
            "byteLength" : 2016,
            "byteOffset" : 80336,
            "target" : 34962
        },
        {
            "buffer" : 0,
            "byteLength" : 1344,
            "byteOffset" : 82352,
            "target" : 34962
        },
        {
            "buffer" : 0,
            "byteLength" : 2016,
            "byteOffset" : 83696,
            "target" : 34962
        },
        {
            "buffer" : 0,
            "byteLength" : 552,
            "byteOffset" : 85712,
            "target" : 34963
        },
        {
            "buffer" : 0,
            "byteLength" : 2220,
            "byteOffset" : 86264,
            "target" : 34962
        },
        {
            "buffer" : 0,
            "byteLength" : 1480,
            "byteOffset" : 88484,
            "target" : 34962
        },
        {
            "buffer" : 0,
            "byteLength" : 2220,
            "byteOffset" : 89964,
            "target" : 34962
        },
        {
            "buffer" : 0,
            "byteLength" : 552,
            "byteOffset" : 92184,
            "target" : 34963
        },
        {
            "buffer" : 0,
            "byteLength" : 25608,
            "byteOffset" : 92736,
            "target" : 34962
        },
        {
            "buffer" : 0,
            "byteLength" : 17072,
            "byteOffset" : 118344,
            "target" : 34962
        },
        {
            "buffer" : 0,
            "byteLength" : 25608,
            "byteOffset" : 135416,
            "target" : 34962
        },
        {
            "buffer" : 0,
            "byteLength" : 6600,
            "byteOffset" : 161024,
            "target" : 34963
        },
        {
            "buffer" : 0,
            "byteLength" : 2124,
            "byteOffset" : 167624,
            "target" : 34962
        },
        {
            "buffer" : 0,
            "byteLength" : 1416,
            "byteOffset" : 169748,
            "target" : 34962
        },
        {
            "buffer" : 0,
            "byteLength" : 2124,
            "byteOffset" : 171164,
            "target" : 34962
        },
        {
            "buffer" : 0,
            "byteLength" : 552,
            "byteOffset" : 173288,
            "target" : 34963
        },
        {
            "buffer" : 0,
            "byteLength" : 50316,
            "byteOffset" : 173840,
            "target" : 34962
        },
        {
            "buffer" : 0,
            "byteLength" : 33544,
            "byteOffset" : 224156,
            "target" : 34962
        },
        {
            "buffer" : 0,
            "byteLength" : 33544,
            "byteOffset" : 257700,
            "target" : 34962
        },
        {
            "buffer" : 0,
            "byteLength" : 33544,
            "byteOffset" : 291244,
            "target" : 34962
        },
        {
            "buffer" : 0,
            "byteLength" : 50316,
            "byteOffset" : 324788,
            "target" : 34962
        },
        {
            "buffer" : 0,
            "byteLength" : 13002,
            "byteOffset" : 375104,
            "target" : 34963
        }
    ],
    "buffers" : [
        {
            "byteLength" : 388108,
            "uri" : "data:application/octet-stream;base64,"
        }
    ]
}
